<?xml version="1.0" encoding="iso-8859-1"?>
<!-- Generator: Adobe Illustrator 19.0.0, SVG Export Plug-In . SVG Version: 6.00 Build 0)  -->
<svg version="1.1" id="Capa_1" xmlns="http://www.w3.org/2000/svg" xmlns:xlink="http://www.w3.org/1999/xlink" x="0px" y="0px"
	 viewBox="0 0 512 512" style="enable-background:new 0 0 512 512;" xml:space="preserve">
<g>
	<g>
		<path d="M302.9,105.929c-8.288,0-15.007-6.719-15.007-15.007V0H72.624c-8.288,0-15.007,6.719-15.007,15.007v415.806l323.442-0.08
			V105.929H302.9z"/>
	</g>
</g>
<g>
	<g>
		<polygon points="317.907,9.048 317.907,75.914 380.937,75.914 		"/>
	</g>
</g>
<g>
	<g>
		<path d="M439.376,75.914h-28.301v369.822c0,8.287-6.717,15.005-15.003,15.007l-284.852,0.092v36.157
			c0,8.288,6.719,15.007,15.007,15.007h313.149c8.288,0,15.007-6.719,15.007-15.007V90.921
			C454.383,82.633,447.664,75.914,439.376,75.914z"/>
	</g>
</g>
<g>
</g>
<g>
</g>
<g>
</g>
<g>
</g>
<g>
</g>
<g>
</g>
<g>
</g>
<g>
</g>
<g>
</g>
<g>
</g>
<g>
</g>
<g>
</g>
<g>
</g>
<g>
</g>
<g>
</g>
</svg>
