<svg id="svg" version="1.1" xmlns="http://www.w3.org/2000/svg" xmlns:xlink="http://www.w3.org/1999/xlink" viewBox="0, 0, 400,400"><g id="svgg"><path id="path0" d="M244.689 102.854 C 240.598 105.906,242.216 110.543,249.192 115.761 C 252.181 117.996,252.488 118.211,257.235 121.383 C 259.526 122.914,261.460 124.309,261.533 124.483 C 261.607 124.658,261.823 124.800,262.014 124.800 C 262.449 124.800,267.752 128.462,267.933 128.888 C 268.007 129.059,268.213 129.200,268.391 129.200 C 268.570 129.200,270.298 130.280,272.233 131.600 C 276.043 134.200,276.307 134.307,276.660 133.387 C 277.205 131.967,261.302 110.690,256.055 105.820 C 252.050 102.102,247.344 100.874,244.689 102.854 M64.300 127.232 C 63.915 127.456,63.600 127.980,63.600 128.396 C 63.600 128.812,63.420 129.264,63.200 129.400 C 62.980 129.536,62.800 129.918,62.800 130.248 C 62.800 131.742,58.300 140.553,55.881 143.794 C 53.311 147.239,50.462 149.414,44.578 152.427 C 36.224 156.705,36.665 157.940,46.600 158.094 L 53.400 158.200 53.630 189.000 C 53.871 221.220,53.801 219.882,55.537 225.483 C 56.410 228.301,59.976 232.000,61.818 232.000 C 62.270 232.000,62.865 232.225,63.141 232.500 C 63.831 233.190,81.396 233.164,82.088 232.472 C 82.348 232.212,83.019 231.997,83.580 231.994 C 87.255 231.973,97.229 225.870,97.187 223.668 C 97.143 221.346,95.543 221.141,91.763 222.975 C 83.589 226.941,76.368 228.030,72.660 225.856 C 67.158 222.632,66.733 219.530,66.886 183.800 L 67.000 157.400 81.200 157.000 L 95.400 156.600 95.400 153.000 L 95.400 149.400 90.800 149.278 C 88.270 149.211,81.974 149.341,76.808 149.566 C 71.642 149.791,67.293 149.846,67.142 149.688 C 66.992 149.530,66.740 144.450,66.582 138.400 C 66.274 126.614,66.177 126.139,64.300 127.232 M293.200 146.768 C 286.684 150.193,283.592 151.576,282.938 151.359 C 282.532 151.224,281.426 150.768,280.479 150.345 C 278.721 149.560,276.794 148.906,273.600 148.011 C 272.610 147.734,271.260 147.341,270.600 147.139 C 266.934 146.015,255.205 146.534,251.800 147.971 C 251.360 148.157,250.190 148.542,249.200 148.827 C 237.821 152.104,225.127 164.390,222.562 174.608 C 222.424 175.158,222.151 175.706,221.956 175.827 C 221.760 175.948,221.600 176.541,221.600 177.144 C 221.600 177.747,221.445 178.411,221.255 178.620 C 219.366 180.703,219.320 201.836,221.194 206.600 C 221.367 207.040,221.739 208.210,222.019 209.200 C 223.885 215.779,228.726 222.595,234.079 226.177 C 235.245 226.958,236.380 227.739,236.600 227.912 C 237.726 228.796,242.707 230.621,246.506 231.539 C 248.923 232.124,260.079 232.142,261.972 231.564 C 262.757 231.324,264.030 230.937,264.800 230.703 C 272.374 228.406,278.439 222.793,282.514 214.305 C 283.331 212.603,284.000 211.028,284.000 210.805 C 284.000 210.582,284.159 210.400,284.353 210.400 C 284.940 210.400,285.187 212.002,285.220 216.000 C 285.250 219.669,285.900 224.033,286.506 224.640 C 286.668 224.801,286.800 225.194,286.800 225.513 C 286.800 226.826,289.575 229.858,291.754 230.925 C 299.068 234.506,308.442 230.219,312.640 221.372 C 313.801 218.925,312.402 216.989,310.752 218.760 C 308.333 221.356,303.574 222.247,300.712 220.640 C 297.118 218.621,297.350 221.109,297.097 181.868 C 296.975 162.911,296.749 147.085,296.595 146.700 C 296.237 145.807,294.980 145.832,293.200 146.768 M105.600 150.158 C 105.600 151.423,105.703 151.531,107.100 151.730 C 114.690 152.812,118.351 154.657,118.961 157.707 C 119.093 158.363,119.201 169.722,119.203 182.950 C 119.207 210.876,119.419 213.333,122.390 219.800 C 124.982 225.441,131.857 232.000,135.179 232.000 C 135.557 232.000,136.001 232.135,136.166 232.299 C 137.930 234.063,149.127 233.638,154.200 231.614 C 157.046 230.479,165.838 225.441,166.800 224.394 C 166.910 224.275,167.930 223.518,169.067 222.713 C 171.135 221.248,171.831 220.707,174.157 218.759 C 176.292 216.970,176.400 217.292,176.400 225.475 L 176.400 232.884 177.900 232.675 C 179.593 232.438,181.503 231.987,185.000 230.999 C 187.995 230.152,192.949 228.843,194.800 228.408 C 196.877 227.921,202.408 226.427,203.922 225.945 C 205.137 225.558,205.234 225.405,205.122 224.062 L 205.000 222.600 200.200 222.367 C 189.187 221.833,190.000 225.031,190.000 182.234 L 190.000 148.791 173.500 148.896 L 157.000 149.000 156.877 150.275 C 156.736 151.725,158.183 152.393,161.474 152.398 C 163.045 152.400,166.217 152.945,171.110 154.054 C 172.417 154.351,173.787 155.023,174.710 155.820 L 176.200 157.108 176.311 184.160 C 176.383 201.764,176.281 211.475,176.019 211.964 C 175.526 212.886,170.440 216.683,168.057 217.909 C 167.099 218.402,165.749 219.100,165.057 219.460 C 162.700 220.687,162.411 220.800,161.629 220.800 C 161.199 220.800,160.748 220.960,160.627 221.156 C 160.506 221.351,159.821 221.613,159.104 221.736 C 158.387 221.859,156.630 222.163,155.200 222.411 C 152.070 222.954,143.490 222.686,141.800 221.992 C 132.481 218.165,132.378 217.685,132.145 176.900 L 131.984 148.800 118.792 148.800 L 105.600 148.800 105.600 150.158 M268.107 153.173 C 274.567 155.021,278.339 157.984,280.868 163.200 C 282.264 166.077,282.577 166.884,283.506 170.000 C 285.549 176.853,285.589 196.667,283.567 200.495 C 283.365 200.877,283.200 201.444,283.200 201.755 C 283.200 203.809,278.631 212.445,275.878 215.594 C 264.651 228.437,245.069 225.227,236.445 209.129 C 232.701 202.141,231.502 196.869,231.458 187.200 C 231.424 179.747,231.756 177.318,233.438 172.717 C 238.956 157.618,253.999 149.139,268.107 153.173 " stroke="none" fill="#f9f9f9" fill-rule="evenodd"></path><path id="path1" d="M0.000 178.800 L 0.000 357.600 178.800 357.600 L 357.600 357.600 357.600 178.800 L 357.600 0.000 178.800 0.000 L 0.000 0.000 0.000 178.800 M378.000 199.200 L 378.000 377.200 199.243 377.200 C 36.609 377.200,20.464 377.257,20.243 377.833 C 20.109 378.181,20.000 383.311,20.000 389.233 L 20.000 400.000 210.000 400.000 L 400.000 400.000 400.000 210.600 L 400.000 21.200 389.000 21.200 L 378.000 21.200 378.000 199.200 M249.754 101.244 C 253.481 102.249,257.583 105.569,262.007 111.160 C 262.773 112.128,263.861 113.478,264.425 114.160 C 264.990 114.842,265.887 116.030,266.420 116.800 C 266.953 117.570,267.608 118.470,267.876 118.800 C 269.849 121.226,274.400 127.626,274.400 127.972 C 274.400 128.208,274.552 128.400,274.737 128.400 C 274.922 128.400,275.413 129.030,275.828 129.800 C 276.243 130.570,276.699 131.200,276.842 131.200 C 278.486 131.200,277.758 134.745,276.106 134.787 C 275.605 134.800,264.061 127.188,262.628 125.900 C 262.200 125.515,261.344 124.976,260.725 124.703 C 260.106 124.429,259.600 124.069,259.600 123.902 C 259.600 123.736,259.408 123.600,259.172 123.600 C 258.663 123.600,251.859 118.833,251.667 118.341 C 251.593 118.153,251.323 117.997,251.067 117.993 C 249.904 117.975,244.587 113.086,242.937 110.519 C 240.049 106.025,241.875 102.502,247.954 100.842 C 248.038 100.819,248.848 101.000,249.754 101.244 M67.106 137.547 L 67.213 148.894 81.621 148.747 C 98.244 148.577,96.785 148.162,96.794 153.071 C 96.802 157.601,96.801 157.602,90.471 157.593 C 87.682 157.589,81.302 157.801,76.294 158.065 L 67.188 158.544 67.370 183.172 C 67.558 208.547,67.796 216.272,68.410 217.012 C 68.605 217.247,68.892 218.241,69.048 219.220 C 69.835 224.175,74.695 227.355,79.459 226.032 C 80.307 225.797,81.574 225.603,82.276 225.602 C 82.978 225.601,83.664 225.420,83.800 225.200 C 83.936 224.980,84.453 224.800,84.949 224.800 C 85.445 224.800,86.739 224.375,87.825 223.855 C 88.911 223.335,90.475 222.669,91.300 222.375 C 92.125 222.080,92.800 221.695,92.800 221.520 C 92.800 221.344,93.160 221.200,93.600 221.200 C 94.040 221.200,94.400 221.008,94.400 220.773 C 94.400 219.845,96.471 220.624,97.129 221.800 C 97.498 222.460,97.935 223.060,98.100 223.133 C 99.515 223.762,93.464 229.217,89.400 230.975 C 88.520 231.356,87.487 231.832,87.105 232.034 C 86.723 232.235,85.879 232.400,85.229 232.400 C 84.579 232.400,83.949 232.558,83.830 232.751 C 83.290 233.624,67.399 234.177,63.800 233.448 C 60.662 232.812,56.000 229.665,56.000 228.182 C 56.000 227.899,55.856 227.607,55.680 227.533 C 53.315 226.547,52.427 214.553,52.412 183.400 L 52.400 158.600 45.769 158.600 C 38.827 158.600,38.000 158.382,38.000 156.554 C 38.000 155.748,39.822 153.847,41.260 153.154 C 46.482 150.638,48.941 149.328,49.602 148.712 C 50.023 148.320,50.533 148.000,50.737 148.000 C 51.325 148.000,56.000 142.835,56.000 142.185 C 56.000 141.863,56.159 141.600,56.353 141.600 C 56.548 141.600,56.815 141.285,56.947 140.900 C 57.079 140.515,57.644 139.480,58.202 138.600 C 58.760 137.720,59.322 136.730,59.451 136.400 C 59.580 136.070,59.918 135.260,60.201 134.600 C 60.485 133.940,61.125 132.410,61.624 131.200 C 62.123 129.990,62.681 128.829,62.865 128.620 C 63.049 128.411,63.200 127.952,63.200 127.600 C 63.200 126.537,64.117 125.957,65.598 126.082 L 67.000 126.200 67.106 137.547 M297.120 145.680 C 297.486 146.046,297.600 154.270,297.600 180.256 C 297.600 202.556,297.738 214.438,298.000 214.600 C 298.220 214.736,298.400 215.431,298.400 216.145 C 298.400 220.308,304.444 221.932,309.027 219.000 C 312.099 217.035,315.254 217.574,314.074 219.862 C 313.865 220.268,313.455 221.140,313.163 221.800 C 311.645 225.232,307.205 230.085,304.261 231.529 C 297.987 234.607,289.309 232.573,286.900 227.461 C 284.898 223.214,284.402 221.096,284.374 216.686 L 284.349 212.600 283.675 214.000 C 283.305 214.770,282.911 215.490,282.800 215.600 C 282.689 215.710,282.336 216.340,282.015 217.000 C 280.375 220.375,273.529 228.000,272.140 228.000 C 271.843 228.000,271.600 228.135,271.600 228.300 C 271.600 228.702,266.401 231.179,264.507 231.679 C 260.189 232.820,251.009 233.569,250.280 232.840 C 250.038 232.598,248.807 232.400,247.544 232.400 C 246.281 232.400,245.136 232.220,245.000 232.000 C 244.864 231.780,244.328 231.600,243.810 231.600 C 242.990 231.600,241.888 231.201,238.200 229.569 C 236.776 228.939,233.732 227.031,232.188 225.800 C 229.730 223.841,225.616 219.279,225.606 218.500 C 225.603 218.225,225.420 218.000,225.200 218.000 C 224.980 218.000,224.800 217.816,224.800 217.592 C 224.800 217.368,224.377 216.513,223.860 215.692 C 223.343 214.871,222.677 213.480,222.379 212.600 C 222.081 211.720,221.693 210.829,221.518 210.620 C 221.343 210.411,221.200 209.837,221.200 209.344 C 221.200 208.851,221.020 208.336,220.800 208.200 C 220.580 208.064,220.400 207.331,220.400 206.571 C 220.400 205.811,220.232 204.877,220.026 204.495 C 218.164 201.031,218.162 184.141,220.024 180.705 C 220.231 180.323,220.400 179.378,220.400 178.605 C 220.400 177.832,220.580 177.200,220.800 177.200 C 221.020 177.200,221.200 176.748,221.200 176.195 C 221.200 175.642,221.362 174.877,221.559 174.495 C 221.757 174.113,222.662 172.246,223.571 170.346 C 226.529 164.164,231.037 158.620,236.419 154.550 C 239.535 152.193,245.753 148.800,246.957 148.800 C 247.285 148.800,247.664 148.620,247.800 148.400 C 247.936 148.180,248.566 148.000,249.200 148.000 C 249.834 148.000,250.452 147.840,250.573 147.644 C 250.694 147.449,251.379 147.191,252.096 147.071 C 252.813 146.951,254.930 146.575,256.800 146.235 C 262.908 145.123,271.309 145.775,274.895 147.639 C 275.277 147.838,275.954 148.000,276.400 148.000 C 276.846 148.000,277.523 148.151,277.905 148.335 C 278.287 148.520,279.648 149.178,280.928 149.799 L 283.256 150.928 286.128 149.458 C 287.708 148.649,289.210 147.991,289.467 147.994 C 289.723 147.997,289.993 147.862,290.067 147.694 C 290.686 146.272,296.151 144.711,297.120 145.680 M133.223 179.200 C 133.447 210.294,133.590 213.324,134.900 214.634 C 135.065 214.798,135.200 215.231,135.200 215.595 C 135.200 217.370,139.300 220.609,142.600 221.441 C 145.470 222.164,158.451 221.637,159.380 220.759 C 159.589 220.562,160.086 220.400,160.485 220.400 C 160.884 220.400,161.523 220.231,161.905 220.026 C 162.287 219.820,163.680 219.153,165.000 218.543 C 167.816 217.243,172.450 214.357,173.943 212.972 C 174.520 212.438,175.129 212.000,175.296 212.000 C 175.463 212.000,175.600 199.805,175.600 184.900 L 175.599 157.800 174.653 156.700 C 174.133 156.095,173.500 155.600,173.248 155.600 C 172.996 155.600,172.477 155.436,172.095 155.235 C 171.012 154.667,167.484 154.007,161.600 153.273 L 156.200 152.600 156.200 150.400 L 156.200 148.200 173.200 148.095 C 188.827 147.998,190.240 148.045,190.700 148.671 C 191.091 149.204,191.200 156.816,191.200 183.516 C 191.200 220.543,191.163 219.891,193.327 220.611 C 195.441 221.314,199.640 221.939,202.446 221.968 L 205.491 222.000 205.749 223.877 C 206.087 226.345,204.698 227.238,199.497 227.895 C 198.671 227.999,197.895 228.245,197.774 228.442 C 197.652 228.639,196.944 228.800,196.200 228.800 C 195.456 228.800,194.748 228.960,194.627 229.156 C 194.506 229.351,193.821 229.607,193.104 229.725 C 192.387 229.842,190.810 230.245,189.600 230.621 C 188.390 230.997,186.724 231.390,185.897 231.495 C 185.071 231.599,184.295 231.845,184.174 232.042 C 184.052 232.239,183.369 232.400,182.656 232.400 C 181.943 232.400,181.189 232.547,180.980 232.727 C 180.300 233.312,176.348 234.108,175.975 233.735 C 175.779 233.539,175.570 230.094,175.509 226.078 L 175.400 218.778 174.257 219.689 C 173.628 220.190,172.638 221.014,172.057 221.520 C 171.475 222.026,170.505 222.740,169.900 223.106 C 169.295 223.473,168.800 223.914,168.800 224.086 C 168.800 224.259,168.564 224.400,168.275 224.400 C 167.987 224.400,167.400 224.727,166.971 225.127 C 165.956 226.072,161.690 228.800,161.226 228.800 C 161.028 228.800,160.807 228.944,160.733 229.121 C 160.523 229.625,154.820 232.400,153.992 232.400 C 153.582 232.400,153.148 232.560,153.027 232.756 C 152.906 232.951,152.221 233.209,151.504 233.327 C 150.787 233.446,149.210 233.755,148.000 234.014 C 145.450 234.561,139.285 234.309,137.200 233.574 C 136.430 233.303,135.440 232.951,135.000 232.794 C 129.385 230.782,124.162 225.858,121.641 220.200 C 121.347 219.540,120.948 218.687,120.753 218.305 C 120.559 217.923,120.400 217.336,120.400 217.000 C 120.400 216.664,120.233 216.077,120.030 215.695 C 118.554 212.925,118.398 209.921,118.370 183.600 C 118.336 152.341,119.056 155.065,110.343 153.258 C 105.144 152.180,104.400 151.845,104.400 150.584 C 104.400 147.865,103.729 147.978,119.117 148.095 L 133.000 148.200 133.223 179.200 M256.200 153.469 C 252.120 154.365,248.357 155.872,246.162 157.488 C 245.481 157.990,244.778 158.400,244.598 158.400 C 244.127 158.400,238.815 163.723,238.807 164.204 C 238.803 164.426,238.350 165.093,237.800 165.687 C 237.250 166.280,236.800 167.043,236.800 167.383 C 236.800 167.722,236.664 168.000,236.498 168.000 C 236.228 168.000,235.830 168.808,234.822 171.400 C 234.651 171.840,234.216 172.881,233.855 173.714 C 233.495 174.546,233.200 175.635,233.200 176.134 C 233.200 176.632,232.983 177.257,232.718 177.522 C 232.024 178.216,232.013 195.773,232.707 196.467 C 232.978 196.738,233.200 197.389,233.200 197.913 C 233.200 203.480,240.548 215.466,246.074 218.915 C 248.424 220.381,250.053 221.200,250.618 221.200 C 250.944 221.200,251.523 221.361,251.905 221.557 C 252.945 222.091,257.189 222.800,259.347 222.800 C 267.474 222.800,275.836 216.823,279.775 208.200 C 280.176 207.320,280.842 205.891,281.253 205.025 C 281.664 204.159,282.000 203.134,282.000 202.748 C 282.000 202.363,282.160 201.948,282.356 201.827 C 282.551 201.706,282.814 201.021,282.940 200.304 C 283.065 199.587,283.395 197.740,283.673 196.200 C 284.593 191.105,284.187 172.810,283.140 172.163 C 282.953 172.047,282.800 171.344,282.800 170.600 C 282.800 169.856,282.620 169.136,282.400 169.000 C 282.180 168.864,282.000 168.345,282.000 167.846 C 282.000 164.838,276.349 157.395,272.800 155.728 C 268.104 153.522,260.602 152.501,256.200 153.469 " stroke="none" fill="#3c444c" fill-rule="evenodd"></path><path id="path2" d="M247.107 101.890 C 247.826 101.979,248.906 101.977,249.507 101.886 C 250.108 101.795,249.520 101.722,248.200 101.724 C 246.880 101.726,246.388 101.801,247.107 101.890 M244.246 102.835 C 242.381 104.302,241.232 107.878,242.394 108.596 C 242.638 108.747,242.695 108.377,242.544 107.622 C 242.224 106.021,243.011 104.208,244.554 102.991 C 245.239 102.451,245.689 102.007,245.554 102.004 C 245.419 102.002,244.830 102.376,244.246 102.835 M250.898 102.231 C 251.025 102.358,251.847 102.853,252.725 103.331 C 255.412 104.794,259.586 109.091,263.964 114.900 C 265.814 117.355,266.658 118.067,265.149 115.900 C 261.490 110.645,256.435 105.244,253.222 103.156 C 251.662 102.142,250.245 101.579,250.898 102.231 M242.800 109.316 C 242.800 109.915,244.917 112.800,245.353 112.794 C 245.667 112.790,245.672 112.701,245.370 112.494 C 245.133 112.332,244.458 111.483,243.870 110.607 C 243.281 109.731,242.800 109.150,242.800 109.316 M246.219 113.600 C 246.652 114.357,247.827 115.300,251.378 117.737 C 254.380 119.797,253.377 118.741,250.129 116.423 C 249.068 115.666,247.677 114.586,247.038 114.023 C 246.399 113.460,246.031 113.270,246.219 113.600 M266.244 118.023 C 266.489 118.340,268.172 120.580,269.985 123.000 C 273.517 127.714,274.985 129.438,272.759 126.258 C 272.012 125.190,271.130 123.927,270.800 123.450 C 269.090 120.981,266.758 118.022,266.309 117.752 C 265.919 117.518,265.904 117.582,266.244 118.023 M255.600 120.607 C 255.600 120.700,256.950 121.687,258.600 122.800 C 260.250 123.913,261.596 124.684,261.591 124.512 C 261.582 124.195,255.600 120.296,255.600 120.607 M263.069 125.713 C 264.511 126.877,267.497 128.800,267.863 128.800 C 268.017 128.800,266.836 127.900,265.239 126.800 C 262.167 124.684,261.186 124.192,263.069 125.713 M65.889 127.123 C 66.229 127.339,66.415 129.256,66.500 133.417 L 66.623 139.400 66.712 133.100 C 66.793 127.331,66.741 126.801,66.100 126.806 C 65.614 126.810,65.549 126.907,65.889 127.123 M275.389 130.495 C 277.866 134.172,277.049 134.815,273.173 132.237 C 271.648 131.223,270.400 130.484,270.400 130.594 C 270.400 131.128,276.038 134.471,276.585 134.261 C 277.653 133.851,275.415 128.400,274.179 128.400 C 274.069 128.400,274.614 129.343,275.389 130.495 M61.737 132.204 C 61.262 133.412,60.953 134.400,61.051 134.400 C 61.329 134.400,62.838 130.714,62.713 130.341 C 62.651 130.158,62.212 130.996,61.737 132.204 M57.679 140.378 C 55.278 144.425,52.911 146.961,49.204 149.454 C 46.384 151.351,46.163 151.861,48.908 150.138 C 53.086 147.515,55.798 144.572,58.578 139.644 C 60.754 135.786,60.073 136.343,57.679 140.378 M66.886 144.713 C 66.783 150.569,65.994 150.054,74.400 149.611 L 81.000 149.263 74.112 149.387 L 67.224 149.510 67.098 144.655 L 66.973 139.800 66.886 144.713 M290.726 147.548 C 288.815 148.575,287.105 149.563,286.926 149.743 C 286.518 150.153,288.539 149.282,290.400 148.245 C 293.895 146.298,296.035 145.543,296.480 146.100 C 296.524 146.155,296.666 150.070,296.796 154.800 L 297.031 163.400 297.116 154.980 C 297.224 144.206,297.135 144.103,290.726 147.548 M254.200 147.009 C 251.582 147.682,253.040 147.681,256.600 147.007 C 258.771 146.596,259.041 146.479,257.800 146.486 C 256.920 146.491,255.300 146.726,254.200 147.009 M268.000 146.696 C 268.770 146.788,270.390 147.138,271.600 147.472 C 274.602 148.301,275.839 148.552,275.594 148.282 C 275.177 147.822,269.174 146.402,267.907 146.464 L 266.600 146.528 268.000 146.696 M250.600 148.000 C 249.829 148.331,249.831 148.345,250.676 148.372 C 251.158 148.387,251.664 148.220,251.800 148.000 C 252.092 147.527,251.701 147.527,250.600 148.000 M105.358 148.966 C 104.737 150.584,105.368 151.784,107.000 152.092 C 109.525 152.567,112.112 153.111,113.200 153.394 C 114.054 153.617,114.096 153.589,113.489 153.202 C 112.807 152.766,110.271 152.182,107.100 151.730 C 105.703 151.531,105.600 151.423,105.600 150.158 L 105.600 148.800 118.800 148.800 L 132.000 148.800 132.028 176.500 C 132.044 191.735,132.211 204.560,132.400 205.000 C 132.786 205.899,132.943 150.039,132.557 149.033 C 132.210 148.129,105.704 148.064,105.358 148.966 M156.667 148.667 C 156.520 148.813,156.400 149.604,156.400 150.424 C 156.400 152.231,156.578 152.316,161.379 152.802 C 163.371 153.004,165.720 153.263,166.600 153.377 C 167.549 153.501,167.223 153.352,165.800 153.010 C 164.480 152.694,162.590 152.426,161.600 152.415 C 158.150 152.377,156.735 151.736,156.877 150.275 L 157.000 149.000 173.500 148.896 L 190.000 148.791 190.028 182.496 C 190.044 201.033,190.179 216.509,190.328 216.886 C 190.626 217.637,190.507 149.711,190.209 148.900 C 190.010 148.359,157.203 148.131,156.667 148.667 M248.000 148.800 C 247.467 149.145,247.467 149.188,248.000 149.188 C 248.330 149.188,248.870 149.013,249.200 148.800 C 249.733 148.455,249.733 148.412,249.200 148.412 C 248.870 148.412,248.330 148.587,248.000 148.800 M93.000 149.167 L 95.400 149.400 95.400 153.000 L 95.400 156.600 88.200 156.814 L 81.000 157.028 87.867 157.114 C 96.628 157.224,96.000 157.542,96.000 153.000 C 96.000 148.765,95.995 148.759,92.667 148.867 L 90.600 148.934 93.000 149.167 M243.200 150.911 C 237.092 153.969,229.321 160.753,226.888 165.151 C 225.748 167.212,226.015 167.319,227.258 165.300 C 230.614 159.848,236.843 154.501,244.000 150.929 C 245.870 149.995,247.220 149.226,247.000 149.220 C 246.780 149.214,245.070 149.975,243.200 150.911 M280.175 150.221 C 281.261 150.759,282.341 151.194,282.575 151.186 C 283.095 151.168,279.162 149.247,278.600 149.244 C 278.380 149.243,279.089 149.683,280.175 150.221 M284.400 150.854 C 283.382 151.412,283.273 151.549,284.000 151.357 C 285.023 151.086,286.892 149.965,286.189 150.043 C 285.975 150.067,285.170 150.432,284.400 150.854 M43.253 152.653 C 42.513 152.976,42.001 153.334,42.116 153.450 C 42.337 153.671,44.800 152.515,44.800 152.190 C 44.800 151.963,44.913 151.929,43.253 152.653 M254.864 152.873 C 253.909 153.087,253.220 153.354,253.333 153.466 C 253.446 153.579,254.497 153.457,255.669 153.196 C 257.732 152.736,265.147 152.828,267.800 153.347 C 268.617 153.507,268.490 153.403,267.400 153.022 C 265.535 152.369,257.546 152.274,254.864 152.873 M40.147 154.309 C 38.729 155.458,38.336 156.572,39.041 157.445 C 39.637 158.181,39.642 158.181,39.268 157.426 C 38.893 156.667,39.404 154.800,39.988 154.800 C 40.130 154.800,40.596 154.536,41.024 154.213 C 41.451 153.890,41.620 153.624,41.400 153.622 C 41.180 153.620,40.616 153.929,40.147 154.309 M115.904 154.398 C 116.621 154.835,117.565 155.779,118.002 156.496 C 118.439 157.213,118.797 157.530,118.798 157.200 C 118.799 156.452,117.289 154.679,116.126 154.063 C 114.675 153.294,114.507 153.546,115.904 154.398 M169.400 154.000 C 169.840 154.189,170.560 154.344,171.000 154.344 L 171.800 154.344 171.000 154.000 C 170.560 153.811,169.840 153.656,169.400 153.656 L 168.600 153.656 169.400 154.000 M251.200 154.000 C 250.667 154.345,250.667 154.388,251.200 154.388 C 251.530 154.388,252.070 154.213,252.400 154.000 C 252.933 153.655,252.933 153.612,252.400 153.612 C 252.070 153.612,251.530 153.787,251.200 154.000 M173.000 155.052 C 173.660 155.393,174.604 156.151,175.098 156.736 C 175.592 157.321,175.997 157.588,175.998 157.329 C 176.001 156.693,173.171 154.396,172.409 154.416 C 172.074 154.425,172.340 154.711,173.000 155.052 M247.600 155.625 C 246.390 156.291,245.130 157.132,244.800 157.496 C 244.257 158.093,244.265 158.107,244.881 157.644 C 245.256 157.363,246.696 156.522,248.081 155.775 C 249.467 155.029,250.420 154.417,250.200 154.416 C 249.980 154.415,248.810 154.959,247.600 155.625 M274.640 156.341 C 276.695 157.843,278.214 159.405,279.248 161.078 C 279.712 161.828,280.183 162.350,280.295 162.238 C 280.966 161.567,274.772 155.209,273.440 155.202 C 273.242 155.201,273.782 155.713,274.640 156.341 M67.067 157.467 C 66.492 158.041,66.803 210.814,67.402 214.400 C 67.714 216.270,67.869 216.900,67.747 215.800 C 67.625 214.700,67.444 201.162,67.345 185.715 L 67.165 157.630 70.882 157.498 L 74.600 157.366 70.967 157.283 C 68.968 157.237,67.213 157.320,67.067 157.467 M42.517 158.297 C 44.011 158.374,46.351 158.374,47.717 158.296 C 49.082 158.218,47.860 158.155,45.000 158.155 C 42.140 158.156,41.022 158.220,42.517 158.297 M52.697 158.291 C 53.082 158.564,53.218 164.477,53.301 184.622 L 53.409 210.600 53.404 184.433 C 53.401 161.516,53.325 158.246,52.800 158.103 C 52.359 157.982,52.332 158.032,52.697 158.291 M118.895 182.600 C 118.808 209.313,119.153 214.656,121.173 217.833 C 121.644 218.575,121.651 218.574,121.384 217.800 C 121.026 216.764,120.492 214.705,119.931 212.200 C 119.641 210.906,119.394 200.946,119.229 184.000 L 118.976 157.800 118.895 182.600 M241.670 159.851 C 239.654 161.680,235.336 167.470,235.710 167.843 C 235.816 167.949,236.404 167.173,237.018 166.118 C 237.631 165.063,239.484 162.805,241.136 161.100 C 244.504 157.623,244.744 157.062,241.670 159.851 M176.189 185.000 C 176.189 199.740,176.239 205.712,176.300 198.271 C 176.361 190.830,176.361 178.770,176.300 171.471 C 176.239 164.172,176.189 170.260,176.189 185.000 M280.400 162.988 C 280.400 163.091,280.723 163.766,281.119 164.488 C 281.514 165.210,282.083 166.566,282.383 167.502 C 282.684 168.438,283.014 169.119,283.119 169.015 C 283.413 168.721,281.012 162.800,280.598 162.800 C 280.489 162.800,280.400 162.885,280.400 162.988 M223.251 171.780 C 222.783 172.776,222.402 173.818,222.404 174.096 C 222.406 174.373,222.860 173.629,223.412 172.442 C 223.965 171.255,224.346 170.213,224.260 170.126 C 224.173 170.040,223.719 170.784,223.251 171.780 M233.613 172.168 C 233.123 173.376,232.815 174.597,232.929 174.882 C 233.067 175.226,233.147 175.176,233.168 174.733 C 233.186 174.366,233.565 173.216,234.010 172.177 C 234.456 171.137,234.749 170.216,234.662 170.129 C 234.576 170.042,234.103 170.960,233.613 172.168 M283.444 171.000 C 283.773 172.471,284.002 172.790,283.994 171.767 C 283.991 171.345,283.805 170.730,283.582 170.400 C 283.285 169.962,283.248 170.124,283.444 171.000 M284.095 174.000 C 284.095 174.550,284.232 175.540,284.400 176.200 C 284.672 177.270,284.705 177.292,284.705 176.400 C 284.705 175.850,284.568 174.860,284.400 174.200 C 284.128 173.130,284.095 173.108,284.095 174.000 M232.249 176.215 C 232.112 176.573,232.018 177.256,232.041 177.733 C 232.067 178.281,232.203 178.086,232.410 177.203 C 232.760 175.716,232.665 175.133,232.249 176.215 M221.246 177.067 C 221.221 177.324,221.084 177.864,220.941 178.267 C 220.740 178.836,220.794 178.897,221.179 178.542 C 221.452 178.291,221.589 177.751,221.484 177.342 C 221.379 176.934,221.272 176.810,221.246 177.067 M284.965 185.800 C 284.966 189.760,285.026 191.326,285.098 189.280 C 285.171 187.234,285.171 183.994,285.098 182.080 C 285.024 180.166,284.965 181.840,284.965 185.800 M231.452 180.500 C 231.108 181.786,231.154 193.309,231.506 193.861 C 231.668 194.115,231.800 191.010,231.800 186.961 C 231.800 182.913,231.776 179.600,231.747 179.600 C 231.717 179.600,231.585 180.005,231.452 180.500 M219.732 183.463 C 219.151 186.904,219.438 200.695,220.153 203.600 C 220.533 205.148,220.714 205.553,220.600 204.600 C 219.677 196.921,219.490 192.376,219.887 187.268 C 220.333 181.521,220.280 180.225,219.732 183.463 M284.222 195.822 C 284.072 196.625,284.028 197.362,284.126 197.460 C 284.224 197.557,284.427 196.981,284.578 196.178 C 284.728 195.375,284.772 194.638,284.674 194.540 C 284.576 194.443,284.373 195.019,284.222 195.822 M232.006 196.833 C 232.009 197.365,232.189 198.070,232.406 198.400 C 232.682 198.822,232.723 198.585,232.542 197.600 C 232.225 195.875,231.998 195.549,232.006 196.833 M283.646 199.067 C 283.621 199.324,283.484 199.864,283.341 200.267 C 283.140 200.836,283.194 200.897,283.579 200.542 C 283.852 200.291,283.989 199.751,283.884 199.342 C 283.779 198.934,283.672 198.810,283.646 199.067 M232.854 199.854 C 232.825 200.324,233.063 201.314,233.384 202.054 C 233.813 203.041,233.973 203.181,233.984 202.580 C 233.993 202.129,233.835 201.589,233.634 201.380 C 233.432 201.171,233.187 200.550,233.088 200.000 C 232.937 199.154,232.901 199.132,232.854 199.854 M282.491 202.900 C 281.810 204.784,281.904 205.294,282.626 203.630 C 282.953 202.877,283.166 202.099,283.101 201.902 C 283.035 201.705,282.760 202.154,282.491 202.900 M281.000 206.661 C 280.664 207.465,280.482 208.215,280.595 208.328 C 280.708 208.441,280.800 208.435,280.800 208.316 C 280.800 208.196,281.072 207.446,281.405 206.649 C 281.738 205.852,281.921 205.200,281.811 205.200 C 281.701 205.200,281.336 205.858,281.000 206.661 M234.805 205.722 C 234.740 210.057,247.440 222.591,251.675 222.373 C 251.964 222.358,251.750 222.150,251.200 221.910 C 244.437 218.959,239.885 214.981,237.115 209.600 C 235.941 207.321,234.809 205.421,234.805 205.722 M220.828 206.676 C 220.918 207.715,221.544 208.596,221.572 207.724 C 221.587 207.242,221.420 206.736,221.200 206.600 C 220.980 206.464,220.813 206.498,220.828 206.676 M133.013 210.600 C 133.228 214.332,136.845 220.800,138.716 220.800 C 138.897 220.800,138.129 219.854,137.009 218.698 C 134.992 216.616,133.581 213.430,133.068 209.800 C 132.975 209.140,132.950 209.500,133.013 210.600 M221.612 209.200 C 221.612 209.530,221.787 210.070,222.000 210.400 C 222.345 210.933,222.388 210.933,222.388 210.400 C 222.388 210.070,222.213 209.530,222.000 209.200 C 221.655 208.667,221.612 208.667,221.612 209.200 M278.293 211.715 C 276.256 214.931,273.552 217.777,270.798 219.604 C 269.809 220.260,269.148 220.797,269.328 220.798 C 271.237 220.808,277.598 214.165,279.953 209.700 C 280.914 207.878,280.089 208.881,278.293 211.715 M284.000 210.802 C 284.000 211.023,283.551 212.134,283.003 213.271 C 282.454 214.408,282.089 215.423,282.192 215.525 C 282.294 215.628,282.788 214.787,283.289 213.656 C 284.576 210.753,284.798 211.050,284.817 215.700 C 284.826 217.955,285.095 220.790,285.413 222.000 C 285.732 223.210,285.897 223.570,285.780 222.800 C 285.663 222.030,285.416 218.970,285.229 216.000 C 285.043 213.030,284.870 210.555,284.845 210.500 C 284.712 210.206,284.000 210.460,284.000 210.802 M174.000 213.446 C 171.784 215.177,170.563 216.428,172.200 215.292 C 173.644 214.289,176.281 212.031,176.000 212.037 C 175.890 212.039,174.990 212.674,174.000 213.446 M223.200 213.296 C 223.200 213.713,224.940 216.793,225.091 216.642 C 225.173 216.561,224.851 215.798,224.377 214.947 C 223.451 213.287,223.200 212.935,223.200 213.296 M297.240 214.904 C 297.163 217.029,300.147 221.587,301.034 220.699 C 301.125 220.609,300.757 220.298,300.217 220.009 C 299.141 219.433,298.205 217.739,297.644 215.347 C 297.336 214.038,297.274 213.970,297.240 214.904 M169.000 216.990 C 168.120 217.532,167.507 217.981,167.639 217.988 C 168.068 218.010,170.379 216.758,170.616 216.375 C 170.953 215.829,170.773 215.898,169.000 216.990 M53.649 218.600 C 53.624 219.260,53.789 220.520,54.014 221.400 C 54.871 224.748,55.686 227.206,56.004 227.402 C 56.185 227.514,56.021 226.750,55.640 225.703 C 55.259 224.656,54.737 222.720,54.481 221.400 C 54.225 220.080,53.943 218.640,53.854 218.200 C 53.753 217.698,53.676 217.846,53.649 218.600 M174.146 218.745 C 172.150 220.463,171.246 221.170,169.067 222.713 C 167.930 223.518,166.910 224.272,166.800 224.388 C 166.226 224.996,160.584 228.498,158.415 229.592 C 157.042 230.285,156.001 230.935,156.102 231.035 C 156.810 231.743,171.936 221.744,174.585 218.816 C 175.834 217.436,176.000 218.257,176.000 225.824 L 176.000 233.200 177.300 233.194 C 178.015 233.191,179.320 232.913,180.200 232.578 C 181.362 232.134,181.472 232.035,180.600 232.216 C 179.940 232.353,178.725 232.559,177.900 232.674 L 176.400 232.884 176.400 225.485 C 176.400 217.294,176.273 216.915,174.146 218.745 M279.266 219.903 C 277.819 222.033,276.018 223.963,273.000 226.618 L 271.800 227.673 273.200 226.743 C 275.625 225.131,282.074 217.600,281.030 217.600 C 280.920 217.600,280.126 218.637,279.266 219.903 M68.229 219.400 C 68.538 221.485,69.398 223.272,70.660 224.451 C 71.472 225.211,71.388 224.973,70.237 223.260 C 69.447 222.083,68.787 220.733,68.772 220.260 C 68.756 219.787,68.574 219.040,68.368 218.600 C 68.095 218.019,68.057 218.239,68.229 219.400 M165.600 218.758 C 164.152 219.524,162.642 220.196,161.600 220.539 C 161.138 220.691,161.162 220.744,161.705 220.768 C 162.093 220.786,162.723 220.640,163.105 220.444 C 163.487 220.249,164.490 219.754,165.333 219.344 C 166.176 218.935,166.952 218.465,167.057 218.300 C 167.325 217.878,167.180 217.923,165.600 218.758 M190.809 218.540 C 190.798 219.435,193.025 221.604,193.942 221.591 C 194.304 221.586,194.030 221.301,193.334 220.957 C 192.637 220.614,191.786 219.763,191.443 219.066 C 191.018 218.206,190.815 218.037,190.809 218.540 M310.208 218.792 C 309.036 220.086,305.269 221.309,303.279 221.041 C 302.192 220.895,301.649 220.955,301.803 221.205 C 302.603 222.500,310.288 220.310,310.945 218.600 C 311.253 217.795,311.065 217.844,310.208 218.792 M312.657 218.400 C 312.908 218.730,313.202 219.360,313.311 219.800 C 313.497 220.560,313.510 220.557,313.554 219.749 C 313.579 219.281,313.285 218.651,312.900 218.349 C 312.291 217.872,312.260 217.878,312.657 218.400 M226.724 219.400 C 228.217 221.659,230.886 224.421,232.743 225.628 C 233.764 226.292,234.078 226.422,233.441 225.918 C 231.899 224.697,228.918 221.734,227.266 219.779 C 226.424 218.783,226.224 218.643,226.724 219.400 M121.609 218.944 C 121.556 220.949,128.186 229.041,131.127 230.562 C 133.093 231.579,132.636 231.000,130.195 229.379 C 127.510 227.597,124.789 224.483,122.974 221.116 C 122.228 219.732,121.614 218.755,121.609 218.944 M94.800 221.200 C 94.334 221.501,94.451 221.589,95.324 221.594 C 95.972 221.597,96.343 221.431,96.200 221.200 C 95.893 220.703,95.569 220.703,94.800 221.200 M159.400 221.200 C 158.629 221.531,158.631 221.545,159.476 221.572 C 159.958 221.587,160.464 221.420,160.600 221.200 C 160.892 220.727,160.501 220.727,159.400 221.200 M142.000 222.000 C 142.330 222.213,142.960 222.378,143.400 222.366 L 144.200 222.344 143.400 222.000 C 142.204 221.486,141.205 221.486,142.000 222.000 M156.200 222.000 L 155.400 222.344 156.200 222.366 C 156.640 222.378,157.270 222.213,157.600 222.000 C 158.395 221.486,157.396 221.486,156.200 222.000 M195.200 221.988 C 195.530 222.208,196.415 222.391,197.167 222.394 C 198.960 222.402,198.641 222.175,196.400 221.850 C 195.142 221.667,194.781 221.709,195.200 221.988 M96.700 222.399 C 97.986 223.842,94.986 227.179,90.151 229.686 C 88.775 230.399,87.716 231.049,87.797 231.130 C 88.171 231.505,93.017 228.481,95.184 226.519 C 97.689 224.252,98.094 223.272,96.900 222.368 C 96.304 221.918,96.275 221.922,96.700 222.399 M147.300 222.696 C 148.565 222.775,150.635 222.775,151.900 222.696 C 153.165 222.616,152.130 222.551,149.600 222.551 C 147.070 222.551,146.035 222.616,147.300 222.696 M205.132 224.010 C 205.278 225.542,205.266 225.557,203.340 226.148 C 202.273 226.476,201.721 226.757,202.113 226.772 C 204.573 226.868,207.008 223.717,205.293 222.657 C 205.124 222.553,205.051 223.161,205.132 224.010 M253.000 222.800 C 253.440 222.989,254.250 223.138,254.800 223.132 L 255.800 223.120 254.800 222.800 C 254.250 222.624,253.440 222.474,253.000 222.468 L 252.200 222.456 253.000 222.800 M263.200 222.800 C 262.408 223.054,262.367 223.120,263.000 223.120 C 263.440 223.120,264.250 222.976,264.800 222.800 C 265.592 222.546,265.633 222.480,265.000 222.480 C 264.560 222.480,263.750 222.624,263.200 222.800 M89.433 223.500 C 89.269 223.665,88.384 224.105,87.467 224.478 C 86.550 224.850,86.070 225.154,86.400 225.153 C 87.254 225.150,91.132 223.273,90.367 223.233 C 90.018 223.215,89.598 223.335,89.433 223.500 M257.700 223.491 C 258.525 223.578,259.875 223.578,260.700 223.491 C 261.525 223.405,260.850 223.334,259.200 223.334 C 257.550 223.334,256.875 223.405,257.700 223.491 M307.850 227.702 C 306.337 229.255,305.617 230.153,306.250 229.698 C 307.363 228.896,309.285 226.938,310.370 225.500 C 311.319 224.242,310.646 224.830,307.850 227.702 M72.000 225.459 C 72.000 225.817,74.565 226.830,75.201 226.724 C 75.646 226.650,75.150 226.345,73.974 225.969 C 72.888 225.623,72.000 225.393,72.000 225.459 M80.600 226.400 C 79.871 226.713,79.888 226.744,80.800 226.744 C 81.350 226.744,82.160 226.589,82.600 226.400 C 83.329 226.087,83.312 226.056,82.400 226.056 C 81.850 226.056,81.040 226.211,80.600 226.400 M287.042 226.900 C 288.475 229.377,291.666 232.021,293.178 231.985 C 293.520 231.977,292.839 231.489,291.664 230.901 C 290.310 230.223,289.078 229.204,288.297 228.116 C 287.141 226.506,286.398 225.786,287.042 226.900 M199.400 227.200 C 198.896 227.417,198.822 227.544,199.200 227.544 C 199.530 227.544,200.160 227.389,200.600 227.200 C 201.104 226.983,201.178 226.856,200.800 226.856 C 200.470 226.856,199.840 227.011,199.400 227.200 M234.800 226.963 C 234.800 227.043,235.250 227.403,235.800 227.763 C 236.350 228.124,236.800 228.263,236.800 228.073 C 236.800 227.884,236.350 227.523,235.800 227.273 C 235.250 227.022,234.800 226.883,234.800 226.963 M193.525 228.608 C 193.411 228.723,191.548 229.265,189.387 229.813 C 185.995 230.674,184.446 231.200,185.306 231.200 C 185.607 231.200,194.857 228.837,195.400 228.622 C 195.620 228.535,195.335 228.449,194.767 228.432 C 194.198 228.414,193.640 228.494,193.525 228.608 M268.000 229.419 C 267.010 229.933,266.337 230.363,266.504 230.376 C 266.889 230.406,270.400 228.766,270.400 228.556 C 270.400 228.268,269.810 228.480,268.000 229.419 M58.112 230.149 C 58.634 230.671,59.497 231.324,60.031 231.600 C 60.635 231.913,60.397 231.562,59.400 230.668 C 57.613 229.066,56.635 228.672,58.112 230.149 M242.400 230.800 C 242.730 231.013,243.270 231.188,243.600 231.188 C 244.133 231.188,244.133 231.145,243.600 230.800 C 243.270 230.587,242.730 230.412,242.400 230.412 C 241.867 230.412,241.867 230.455,242.400 230.800 M303.000 231.200 C 302.120 231.607,301.634 231.954,301.920 231.970 C 302.489 232.003,304.800 230.895,304.800 230.590 C 304.800 230.354,304.907 230.317,303.000 231.200 M85.600 231.600 C 85.067 231.945,85.067 231.988,85.600 231.988 C 85.930 231.988,86.470 231.813,86.800 231.600 C 87.333 231.255,87.333 231.212,86.800 231.212 C 86.470 231.212,85.930 231.387,85.600 231.600 M182.800 231.618 C 182.362 231.915,182.524 231.952,183.400 231.756 C 184.871 231.427,185.190 231.198,184.167 231.206 C 183.745 231.209,183.130 231.395,182.800 231.618 M245.400 231.600 C 245.840 231.789,246.560 231.944,247.000 231.944 L 247.800 231.944 247.000 231.600 C 246.560 231.411,245.840 231.256,245.400 231.256 L 244.600 231.256 245.400 231.600 M261.600 231.600 C 260.805 232.114,261.804 232.114,263.000 231.600 L 263.800 231.256 263.000 231.234 C 262.560 231.222,261.930 231.387,261.600 231.600 M61.800 232.400 C 62.901 232.873,63.292 232.873,63.000 232.400 C 62.864 232.180,62.358 232.013,61.876 232.028 C 61.031 232.055,61.029 232.069,61.800 232.400 M82.190 232.416 C 82.021 232.689,82.323 232.738,83.066 232.560 C 84.599 232.192,84.744 232.000,83.490 232.000 C 82.917 232.000,82.332 232.187,82.190 232.416 M151.600 232.418 C 151.162 232.715,151.324 232.752,152.200 232.556 C 153.671 232.227,153.990 231.998,152.967 232.006 C 152.545 232.009,151.930 232.195,151.600 232.418 M251.900 232.296 C 253.275 232.374,255.525 232.374,256.900 232.296 C 258.275 232.218,257.150 232.154,254.400 232.154 C 251.650 232.154,250.525 232.218,251.900 232.296 M295.900 232.293 C 296.835 232.377,298.365 232.377,299.300 232.293 C 300.235 232.209,299.470 232.140,297.600 232.140 C 295.730 232.140,294.965 232.209,295.900 232.293 M65.400 233.265 C 67.896 233.596,74.950 233.589,78.400 233.253 C 79.859 233.111,77.138 233.000,72.200 233.000 C 67.360 233.000,64.300 233.119,65.400 233.265 M139.000 233.391 C 142.033 234.116,145.521 234.111,148.600 233.375 L 151.000 232.802 148.800 233.093 C 146.007 233.462,141.634 233.465,138.800 233.100 L 136.600 232.817 139.000 233.391 " stroke="none" fill="#a4a4a4" fill-rule="evenodd"></path><path id="path3" d="M66.963 133.600 C 66.963 137.230,67.023 138.715,67.098 136.900 C 67.172 135.085,67.172 132.115,67.098 130.300 C 67.023 128.485,66.963 129.970,66.963 133.600 M261.113 146.295 C 262.276 146.376,264.076 146.376,265.113 146.293 C 266.151 146.211,265.200 146.145,263.000 146.146 C 260.800 146.147,259.951 146.214,261.113 146.295 M83.317 149.097 C 84.811 149.174,87.151 149.174,88.517 149.096 C 89.882 149.018,88.660 148.955,85.800 148.955 C 82.940 148.956,81.822 149.020,83.317 149.097 M67.900 149.482 C 68.395 149.578,69.205 149.578,69.700 149.482 C 70.195 149.387,69.790 149.309,68.800 149.309 C 67.810 149.309,67.405 149.387,67.900 149.482 M96.144 152.800 C 96.144 154.890,96.212 155.745,96.294 154.700 C 96.376 153.655,96.376 151.945,96.294 150.900 C 96.212 149.855,96.144 150.710,96.144 152.800 M76.100 157.494 C 77.145 157.576,78.855 157.576,79.900 157.494 C 80.945 157.412,80.090 157.344,78.000 157.344 C 75.910 157.344,75.055 157.412,76.100 157.494 M231.781 158.900 L 230.200 160.600 231.900 159.019 C 233.481 157.548,233.784 157.200,233.481 157.200 C 233.416 157.200,232.651 157.965,231.781 158.900 M68.912 157.895 C 69.964 157.977,71.584 157.976,72.512 157.892 C 73.440 157.808,72.580 157.741,70.600 157.742 C 68.620 157.743,67.860 157.812,68.912 157.895 M50.500 158.276 C 50.885 158.376,51.515 158.376,51.900 158.276 C 52.285 158.175,51.970 158.093,51.200 158.093 C 50.430 158.093,50.115 158.175,50.500 158.276 M52.989 184.000 C 52.989 198.190,53.039 203.995,53.100 196.900 C 53.161 189.805,53.161 178.195,53.100 171.100 C 53.039 164.005,52.989 169.810,52.989 184.000 M297.388 188.600 C 297.388 202.680,297.439 208.382,297.500 201.271 C 297.561 194.160,297.561 182.640,297.500 175.671 C 297.438 168.702,297.388 174.520,297.388 188.600 M218.946 192.600 C 218.947 194.800,219.014 195.649,219.095 194.487 C 219.176 193.324,219.176 191.524,219.093 190.487 C 219.011 189.449,218.945 190.400,218.946 192.600 M132.909 206.800 C 132.909 207.790,132.987 208.195,133.082 207.700 C 133.178 207.205,133.178 206.395,133.082 205.900 C 132.987 205.405,132.909 205.810,132.909 206.800 M53.331 213.000 C 53.333 214.540,53.405 215.121,53.492 214.291 C 53.579 213.461,53.577 212.201,53.489 211.491 C 53.400 210.781,53.329 211.460,53.331 213.000 M241.800 216.000 C 242.659 216.880,243.452 217.600,243.562 217.600 C 243.672 217.600,243.059 216.880,242.200 216.000 C 241.341 215.120,240.548 214.400,240.438 214.400 C 240.328 214.400,240.941 215.120,241.800 216.000 M69.315 233.896 C 70.588 233.976,72.568 233.975,73.715 233.894 C 74.862 233.814,73.820 233.749,71.400 233.750 C 68.980 233.751,68.042 233.816,69.315 233.896 " stroke="none" fill="#8c8c94" fill-rule="evenodd"></path><path id="path4" d="M247.000 101.200 C 246.412 101.453,246.731 101.544,248.200 101.544 C 249.669 101.544,249.988 101.453,249.400 101.200 C 248.960 101.011,248.420 100.856,248.200 100.856 C 247.980 100.856,247.440 101.011,247.000 101.200 M253.786 103.322 C 254.439 103.805,255.969 105.084,257.186 106.165 L 259.400 108.130 257.180 105.965 C 254.625 103.473,253.316 102.391,252.895 102.422 C 252.733 102.434,253.134 102.839,253.786 103.322 M242.080 104.480 C 241.413 105.147,241.502 108.437,242.213 109.376 C 242.536 109.804,242.800 109.949,242.800 109.700 C 242.800 109.451,242.620 109.136,242.400 109.000 C 241.837 108.652,241.900 105.060,242.480 104.480 C 242.744 104.216,242.870 104.000,242.760 104.000 C 242.650 104.000,242.344 104.216,242.080 104.480 M245.000 113.145 C 245.880 114.092,247.140 115.241,247.800 115.698 C 249.199 116.667,249.017 116.474,245.800 113.581 C 243.765 111.751,243.643 111.685,245.000 113.145 M264.000 114.187 C 266.410 117.349,267.371 118.369,266.064 116.377 C 265.406 115.374,264.537 114.294,264.134 113.977 C 263.446 113.436,263.438 113.450,264.000 114.187 M249.200 116.700 C 249.200 116.869,249.560 117.232,250.000 117.507 C 250.440 117.782,250.800 117.869,250.800 117.700 C 250.800 117.531,250.440 117.168,250.000 116.893 C 249.560 116.618,249.200 116.531,249.200 116.700 M251.605 118.282 C 251.607 118.457,252.597 119.286,253.805 120.124 C 255.012 120.962,256.000 121.457,256.000 121.224 C 256.000 120.991,255.846 120.800,255.658 120.800 C 255.469 120.800,254.479 120.162,253.458 119.382 C 252.436 118.602,251.602 118.107,251.605 118.282 M267.952 119.500 C 269.795 122.012,270.772 122.875,269.328 120.715 C 268.487 119.459,267.653 118.424,267.473 118.415 C 267.293 118.407,267.509 118.895,267.952 119.500 M257.400 122.565 C 258.060 123.132,258.765 123.597,258.967 123.598 C 259.401 123.600,259.396 123.596,257.600 122.437 L 256.200 121.534 257.400 122.565 M271.590 124.300 C 272.061 124.905,272.819 125.993,273.273 126.717 C 273.727 127.441,274.192 127.941,274.306 127.827 C 274.511 127.622,271.273 123.200,270.918 123.200 C 270.816 123.200,271.119 123.695,271.590 124.300 M63.636 126.556 C 63.203 127.078,63.296 127.094,64.379 126.685 C 65.352 126.318,65.796 126.330,66.452 126.740 C 67.142 127.170,67.257 127.169,67.113 126.731 C 66.859 125.960,64.241 125.828,63.636 126.556 M263.203 126.273 C 263.204 126.453,263.744 126.907,264.403 127.281 C 265.943 128.158,265.942 127.898,264.400 126.800 C 263.740 126.330,263.201 126.093,263.203 126.273 M275.225 129.400 C 275.225 129.620,275.490 130.149,275.813 130.576 C 276.136 131.004,276.400 131.173,276.400 130.953 C 276.400 130.733,276.136 130.204,275.813 129.776 C 275.490 129.349,275.225 129.180,275.225 129.400 M268.400 129.770 C 268.400 129.880,269.480 130.704,270.800 131.600 C 272.120 132.496,273.200 133.140,273.200 133.030 C 273.200 132.920,272.120 132.096,270.800 131.200 C 269.480 130.304,268.400 129.660,268.400 129.770 M61.253 132.053 C 60.135 134.746,60.387 134.998,61.573 132.373 C 62.076 131.262,62.403 130.269,62.300 130.167 C 62.198 130.065,61.727 130.914,61.253 132.053 M277.030 131.800 C 277.516 133.301,277.400 133.753,276.400 134.271 C 275.850 134.555,275.670 134.785,276.000 134.781 C 277.568 134.764,278.196 133.696,277.459 132.302 C 277.081 131.586,276.888 131.360,277.030 131.800 M57.280 140.080 C 57.016 140.344,56.800 140.794,56.800 141.080 C 56.800 141.366,56.620 141.600,56.400 141.600 C 56.180 141.600,56.000 141.791,56.000 142.024 C 56.000 142.717,56.707 142.069,57.344 140.792 C 58.000 139.477,57.990 139.370,57.280 140.080 M53.381 145.700 L 51.800 147.400 53.500 145.819 C 55.081 144.348,55.384 144.000,55.081 144.000 C 55.016 144.000,54.251 144.765,53.381 145.700 M293.200 145.833 C 292.584 146.175,292.438 146.390,292.820 146.394 C 293.161 146.397,293.633 146.207,293.869 145.971 C 294.105 145.735,294.906 145.600,295.649 145.671 L 297.000 145.800 297.212 154.600 L 297.424 163.400 297.512 154.780 C 297.576 148.506,297.469 146.029,297.120 145.680 C 296.493 145.053,294.463 145.132,293.200 145.833 M258.000 145.953 C 257.230 146.089,259.570 146.200,263.200 146.200 C 266.999 146.200,269.036 146.085,268.000 145.930 C 265.807 145.600,259.918 145.614,258.000 145.953 M271.200 146.800 C 271.530 147.013,272.070 147.188,272.400 147.188 C 272.933 147.188,272.933 147.145,272.400 146.800 C 272.070 146.587,271.530 146.412,271.200 146.412 C 270.667 146.412,270.667 146.455,271.200 146.800 M104.792 148.815 C 104.281 149.770,104.413 151.677,105.003 151.870 C 105.247 151.950,105.349 151.290,105.262 150.196 L 105.119 148.389 118.859 148.495 L 132.600 148.600 132.805 177.000 L 133.011 205.400 133.005 176.800 L 133.000 148.200 119.117 148.095 C 105.449 147.991,105.227 148.002,104.792 148.815 M156.162 148.554 C 155.564 150.114,156.186 152.599,157.200 152.696 C 158.185 152.791,158.187 152.786,157.300 152.409 C 156.555 152.092,156.400 151.713,156.400 150.213 L 156.400 148.400 173.400 148.400 L 190.400 148.400 190.440 181.700 C 190.462 200.015,190.624 215.450,190.800 216.000 C 190.976 216.550,191.138 201.823,191.160 183.274 C 191.187 160.715,191.063 149.291,190.786 148.774 C 190.240 147.753,156.551 147.540,156.162 148.554 M276.600 148.400 C 277.701 148.873,278.092 148.873,277.800 148.400 C 277.664 148.180,277.158 148.013,276.676 148.028 C 275.831 148.055,275.829 148.069,276.600 148.400 M91.400 148.601 C 92.336 148.924,96.345 149.034,96.158 148.731 C 96.045 148.549,94.838 148.414,93.476 148.432 C 92.114 148.449,91.180 148.525,91.400 148.601 M70.500 149.098 C 72.425 149.171,75.575 149.171,77.500 149.098 C 79.425 149.025,77.850 148.965,74.000 148.965 C 70.150 148.965,68.575 149.025,70.500 149.098 M244.485 149.671 C 243.542 150.129,242.835 150.569,242.916 150.649 C 242.996 150.729,243.948 150.355,245.031 149.818 C 246.114 149.281,246.820 148.842,246.600 148.841 C 246.380 148.840,245.428 149.214,244.485 149.671 M279.546 149.416 C 280.286 149.737,281.006 149.994,281.146 149.986 C 281.666 149.957,279.376 148.828,278.800 148.830 C 278.470 148.831,278.806 149.094,279.546 149.416 M285.502 149.704 C 284.679 150.163,284.073 150.606,284.155 150.689 C 284.286 150.820,287.112 149.385,287.567 148.957 C 288.014 148.535,286.836 148.962,285.502 149.704 M96.400 152.951 C 96.400 157.328,96.716 157.157,88.371 157.300 L 81.400 157.420 88.471 157.510 C 97.092 157.620,96.800 157.779,96.800 152.971 C 96.800 151.117,96.710 149.600,96.600 149.600 C 96.490 149.600,96.400 151.108,96.400 152.951 M238.543 152.989 C 237.411 153.731,236.356 154.547,236.199 154.802 C 236.041 155.058,237.012 154.516,238.356 153.598 C 239.700 152.680,240.800 151.856,240.800 151.765 C 240.800 151.515,240.750 151.542,238.543 152.989 M106.400 152.400 C 106.730 152.613,107.450 152.778,108.000 152.766 C 108.916 152.746,108.933 152.715,108.200 152.400 C 107.016 151.891,105.613 151.891,106.400 152.400 M41.424 153.013 C 40.436 153.760,41.085 153.752,42.400 153.000 C 42.980 152.668,43.148 152.428,42.800 152.427 C 42.470 152.426,41.851 152.690,41.424 153.013 M109.233 152.947 C 109.325 153.028,110.120 153.204,111.000 153.338 C 112.115 153.507,112.358 153.471,111.800 153.219 C 111.032 152.871,108.890 152.644,109.233 152.947 M159.233 152.944 C 159.325 153.023,160.570 153.186,162.000 153.306 C 163.560 153.437,164.200 153.395,163.600 153.202 C 162.612 152.884,158.911 152.665,159.233 152.944 M256.315 153.128 C 255.938 153.278,258.046 153.400,261.000 153.400 C 263.954 153.400,266.062 153.278,265.685 153.128 C 265.308 152.979,263.200 152.856,261.000 152.856 C 258.800 152.856,256.692 152.979,256.315 153.128 M114.200 154.212 C 116.204 154.934,116.478 154.930,115.200 154.200 C 114.650 153.886,113.840 153.630,113.400 153.632 C 112.960 153.634,113.320 153.895,114.200 154.212 M167.000 154.001 C 171.468 154.843,171.481 154.844,169.600 154.215 C 168.610 153.883,167.260 153.632,166.600 153.656 C 165.552 153.695,165.603 153.738,167.000 154.001 M252.200 154.186 C 250.600 154.918,251.392 154.935,253.400 154.212 C 254.280 153.895,254.640 153.635,254.200 153.636 C 253.760 153.636,252.860 153.883,252.200 154.186 M268.200 154.011 C 271.097 154.804,271.385 154.837,270.054 154.222 C 269.314 153.880,268.324 153.618,267.854 153.641 C 267.209 153.672,267.294 153.762,268.200 154.011 M116.900 155.431 C 117.285 155.889,117.600 156.463,117.600 156.708 C 117.600 156.953,117.763 157.254,117.963 157.377 C 118.686 157.824,117.898 156.033,117.060 155.326 C 116.208 154.606,116.206 154.607,116.900 155.431 M234.000 156.460 C 233.230 157.135,232.962 157.505,233.404 157.281 C 234.135 156.911,235.947 155.178,235.562 155.216 C 235.473 155.225,234.770 155.785,234.000 156.460 M38.032 156.326 C 37.985 157.106,38.762 158.400,39.276 158.400 C 39.545 158.400,39.480 158.120,39.114 157.700 C 38.779 157.315,38.405 156.730,38.284 156.400 C 38.132 155.986,38.053 155.963,38.032 156.326 M245.897 157.166 C 244.525 158.045,244.160 158.401,244.633 158.398 C 244.835 158.397,245.540 157.953,246.200 157.412 C 247.599 156.266,247.467 156.159,245.897 157.166 M276.601 158.398 C 277.260 159.167,277.845 159.872,277.900 159.965 C 277.955 160.057,278.087 160.046,278.194 159.939 C 278.301 159.833,277.716 159.128,276.895 158.373 L 275.402 157.000 276.601 158.398 M70.600 158.000 L 67.000 158.249 70.000 158.275 C 71.650 158.290,74.890 158.174,77.200 158.018 L 81.400 157.734 77.800 157.743 C 75.820 157.747,72.580 157.863,70.600 158.000 M118.511 183.800 C 118.447 205.614,118.530 210.122,119.021 211.800 C 119.343 212.900,119.486 213.170,119.339 212.400 C 119.192 211.630,118.962 199.030,118.829 184.400 L 118.586 157.800 118.511 183.800 M42.700 158.696 C 44.075 158.774,46.325 158.774,47.700 158.696 C 49.075 158.618,47.950 158.554,45.200 158.554 C 42.450 158.554,41.325 158.618,42.700 158.696 M52.524 183.800 C 52.513 197.880,52.616 210.750,52.752 212.400 C 52.889 214.050,52.951 203.340,52.891 188.600 C 52.830 173.860,52.728 160.990,52.663 160.000 C 52.598 159.010,52.535 169.720,52.524 183.800 M175.789 185.000 C 175.789 199.740,175.839 205.712,175.900 198.271 C 175.961 190.830,175.961 178.770,175.900 171.471 C 175.839 164.172,175.789 170.260,175.789 185.000 M241.210 160.990 C 240.020 162.195,239.126 163.230,239.223 163.290 C 239.321 163.351,240.409 162.365,241.641 161.100 C 242.874 159.835,243.768 158.800,243.628 158.800 C 243.487 158.800,242.399 159.786,241.210 160.990 M229.483 161.000 C 228.869 161.770,228.489 162.400,228.639 162.400 C 228.936 162.400,229.774 161.412,230.421 160.300 C 231.057 159.207,230.703 159.471,229.483 161.000 M279.752 162.783 C 280.433 164.082,281.049 165.084,281.122 165.012 C 281.310 164.823,279.285 160.900,278.865 160.640 C 278.672 160.521,279.071 161.485,279.752 162.783 M226.379 165.231 C 225.471 166.568,224.789 167.722,224.864 167.797 C 224.939 167.871,225.766 166.777,226.703 165.366 C 227.639 163.955,228.321 162.800,228.217 162.800 C 228.114 162.800,227.287 163.894,226.379 165.231 M282.828 171.076 C 282.813 171.558,282.980 172.064,283.200 172.200 C 283.673 172.492,283.673 172.101,283.200 171.000 C 282.869 170.229,282.855 170.231,282.828 171.076 M233.915 172.610 C 233.792 173.045,233.569 173.760,233.420 174.200 C 233.271 174.640,233.442 174.494,233.800 173.876 C 234.158 173.258,234.381 172.542,234.295 172.286 C 234.210 172.030,234.039 172.176,233.915 172.610 M283.623 174.433 C 283.636 175.185,283.805 176.520,283.998 177.400 C 284.269 178.630,284.298 178.352,284.126 176.200 C 283.887 173.220,283.585 172.158,283.623 174.433 M284.565 186.000 C 284.565 189.850,284.625 191.425,284.698 189.500 C 284.771 187.575,284.771 184.425,284.698 182.500 C 284.625 180.575,284.565 182.150,284.565 186.000 M231.857 182.059 C 231.543 185.065,231.579 189.909,231.935 192.600 C 232.084 193.723,232.201 191.311,232.203 187.100 C 232.206 178.652,232.209 178.693,231.857 182.059 M218.861 186.895 C 218.267 191.144,218.319 195.035,219.019 198.800 C 219.381 200.747,219.508 201.098,219.382 199.800 C 218.774 193.561,218.730 190.881,219.182 187.570 C 219.455 185.576,219.598 183.865,219.500 183.767 C 219.403 183.669,219.115 185.077,218.861 186.895 M283.853 194.436 C 283.714 195.131,283.622 196.263,283.649 196.950 C 283.678 197.694,283.838 197.240,284.043 195.828 C 284.411 193.304,284.276 192.318,283.853 194.436 M232.428 196.676 C 232.518 197.715,233.144 198.596,233.172 197.724 C 233.187 197.242,233.020 196.736,232.800 196.600 C 232.580 196.464,232.413 196.498,232.428 196.676 M283.049 199.015 C 282.912 199.373,282.815 199.966,282.834 200.333 C 282.853 200.700,283.027 200.469,283.221 199.820 C 283.598 198.558,283.465 197.933,283.049 199.015 M234.018 202.054 C 234.008 202.414,234.263 203.314,234.584 204.054 C 235.340 205.794,235.358 205.073,234.612 203.000 C 234.295 202.120,234.027 201.694,234.018 202.054 M280.086 207.486 C 279.612 208.515,279.286 209.419,279.361 209.494 C 279.436 209.569,279.891 208.794,280.371 207.771 C 280.852 206.749,281.178 205.845,281.096 205.763 C 281.014 205.681,280.559 206.456,280.086 207.486 M67.229 208.800 C 67.265 211.768,67.903 213.720,67.948 211.000 C 67.970 209.680,67.813 208.330,67.600 208.000 C 67.310 207.552,67.217 207.754,67.229 208.800 M236.802 209.100 C 236.803 209.265,237.257 209.940,237.810 210.600 L 238.816 211.800 237.968 210.300 C 237.145 208.842,236.798 208.485,236.802 209.100 M133.234 210.200 C 133.222 210.640,133.387 211.270,133.600 211.600 C 134.114 212.395,134.114 211.396,133.600 210.200 L 133.256 209.400 133.234 210.200 M222.032 211.504 C 221.994 212.100,223.636 215.697,223.849 215.485 C 223.929 215.405,223.660 214.633,223.251 213.769 C 222.842 212.906,222.407 211.930,222.285 211.600 C 222.147 211.227,222.051 211.191,222.032 211.504 M284.304 215.700 C 284.499 221.734,284.684 222.069,284.746 216.500 C 284.775 213.805,284.659 211.600,284.486 211.600 C 284.313 211.600,284.231 213.445,284.304 215.700 M174.056 212.813 C 172.816 213.846,173.375 213.835,174.691 212.800 C 175.250 212.360,175.549 212.006,175.354 212.013 C 175.159 212.021,174.575 212.381,174.056 212.813 M241.800 215.600 C 243.106 216.920,244.287 218.000,244.423 218.000 C 244.560 218.000,243.592 216.920,242.272 215.600 C 240.952 214.280,239.771 213.200,239.649 213.200 C 239.526 213.200,240.494 214.280,241.800 215.600 M275.634 214.553 L 274.669 215.800 275.813 214.712 C 276.443 214.114,276.877 213.553,276.779 213.465 C 276.680 213.377,276.165 213.867,275.634 214.553 M170.694 215.296 C 169.646 215.970,168.869 216.602,168.966 216.700 C 169.154 216.887,172.800 214.491,172.800 214.181 C 172.800 213.936,172.847 213.911,170.694 215.296 M297.628 214.876 C 297.696 216.144,298.342 217.054,298.372 215.924 C 298.387 215.332,298.220 214.736,298.000 214.600 C 297.780 214.464,297.613 214.588,297.628 214.876 M53.331 218.200 C 53.333 219.740,53.405 220.321,53.492 219.491 C 53.579 218.661,53.577 217.401,53.489 216.691 C 53.400 215.981,53.329 216.660,53.331 218.200 M165.600 218.240 C 164.170 218.985,163.190 219.595,163.421 219.597 C 164.013 219.601,167.948 217.608,168.221 217.165 C 168.504 216.709,168.679 216.637,165.600 218.240 M271.400 218.635 L 270.200 219.666 271.500 218.806 C 272.215 218.333,272.800 217.868,272.800 217.773 C 272.800 217.473,272.631 217.578,271.400 218.635 M280.492 219.029 C 279.997 219.783,279.672 220.400,279.769 220.400 C 280.047 220.400,281.704 217.971,281.539 217.806 C 281.457 217.724,280.986 218.274,280.492 219.029 M299.257 218.778 C 299.813 219.536,300.523 220.237,300.834 220.336 C 301.154 220.438,301.050 220.186,300.595 219.758 C 300.152 219.341,299.442 218.640,299.017 218.200 C 298.592 217.760,298.700 218.020,299.257 218.778 M309.094 218.896 C 308.046 219.570,307.269 220.202,307.366 220.300 C 307.554 220.487,311.200 218.091,311.200 217.781 C 311.200 217.536,311.247 217.511,309.094 218.896 M313.138 218.242 C 313.731 218.657,313.965 219.115,313.803 219.542 C 313.605 220.063,313.656 220.098,314.047 219.709 C 314.578 219.182,313.530 217.600,312.649 217.600 C 312.414 217.600,312.634 217.889,313.138 218.242 M174.813 218.720 C 174.293 219.280,174.304 219.322,174.913 219.089 C 175.547 218.845,175.600 219.396,175.600 226.225 C 175.600 234.315,175.657 234.501,177.887 233.651 C 178.917 233.258,178.888 233.243,177.500 233.458 L 176.000 233.689 175.994 226.345 C 175.987 218.686,175.824 217.632,174.813 218.720 M191.215 218.400 C 191.221 218.730,191.490 219.349,191.813 219.776 C 192.568 220.775,192.563 220.405,191.802 218.946 C 191.474 218.316,191.210 218.070,191.215 218.400 M225.615 218.600 C 225.629 219.094,227.162 220.973,227.374 220.757 C 227.459 220.670,227.095 220.060,226.566 219.400 C 226.037 218.740,225.609 218.380,225.615 218.600 M94.400 220.745 C 94.400 220.934,94.812 221.010,95.316 220.914 C 95.992 220.785,96.377 221.009,96.783 221.769 C 97.086 222.335,97.409 222.725,97.499 222.634 C 97.590 222.544,97.359 222.004,96.986 221.435 C 96.344 220.456,94.400 219.937,94.400 220.745 M303.013 220.825 C 303.714 221.029,304.726 221.028,305.413 220.823 C 306.412 220.525,306.219 220.469,304.200 220.470 C 302.163 220.472,301.983 220.525,303.013 220.825 M170.600 222.294 L 169.000 223.713 170.600 222.588 C 172.658 221.141,172.560 221.226,172.367 221.037 C 172.275 220.948,171.480 221.513,170.600 222.294 M53.668 221.600 C 53.688 222.639,54.318 224.346,54.332 223.400 C 54.338 222.960,54.189 222.240,54.000 221.800 C 53.789 221.310,53.661 221.232,53.668 221.600 M141.633 221.344 C 141.725 221.423,142.340 221.608,143.000 221.756 C 143.876 221.952,144.038 221.915,143.600 221.618 C 143.060 221.253,141.232 220.998,141.633 221.344 M155.600 221.600 C 154.836 222.094,155.658 222.094,157.200 221.600 L 158.200 221.280 157.200 221.246 C 156.650 221.227,155.930 221.387,155.600 221.600 M195.600 221.600 C 196.150 221.776,197.140 221.917,197.800 221.913 L 199.000 221.905 197.800 221.600 C 197.140 221.432,196.150 221.291,195.600 221.287 L 194.600 221.280 195.600 221.600 M228.854 222.737 C 229.594 223.583,230.560 224.503,231.000 224.783 C 231.440 225.062,230.907 224.370,229.815 223.245 C 227.476 220.835,226.939 220.551,228.854 222.737 M89.800 222.991 C 88.700 223.509,87.980 223.937,88.200 223.942 C 88.420 223.947,89.500 223.527,90.600 223.009 C 91.700 222.491,92.420 222.063,92.200 222.058 C 91.980 222.053,90.900 222.473,89.800 222.991 M147.100 222.296 C 148.475 222.374,150.725 222.374,152.100 222.296 C 153.475 222.218,152.350 222.154,149.600 222.154 C 146.850 222.154,145.725 222.218,147.100 222.296 M200.700 222.293 C 201.635 222.377,203.165 222.377,204.100 222.293 C 205.035 222.209,204.270 222.140,202.400 222.140 C 200.530 222.140,199.765 222.209,200.700 222.293 M252.433 222.149 C 252.525 222.231,253.500 222.401,254.600 222.528 C 255.949 222.684,256.274 222.649,255.600 222.420 C 254.601 222.080,252.118 221.868,252.433 222.149 M262.800 222.400 C 262.008 222.654,261.967 222.720,262.600 222.720 C 263.040 222.720,263.850 222.576,264.400 222.400 C 265.192 222.146,265.233 222.080,264.600 222.080 C 264.160 222.080,263.350 222.224,262.800 222.400 M311.692 223.829 C 311.197 224.583,310.872 225.200,310.969 225.200 C 311.247 225.200,312.904 222.771,312.739 222.606 C 312.657 222.524,312.186 223.074,311.692 223.829 M257.900 223.089 C 258.615 223.178,259.785 223.178,260.500 223.089 C 261.215 223.001,260.630 222.928,259.200 222.928 C 257.770 222.928,257.185 223.001,257.900 223.089 M276.575 224.100 L 275.400 225.400 276.700 224.225 C 277.415 223.579,278.000 222.994,278.000 222.925 C 278.000 222.616,277.670 222.888,276.575 224.100 M123.677 223.912 C 125.484 226.375,126.190 227.200,126.491 227.200 C 126.678 227.200,126.450 226.795,125.985 226.300 C 125.519 225.805,124.843 224.905,124.483 224.300 C 124.122 223.695,123.676 223.200,123.491 223.200 C 123.306 223.200,123.390 223.521,123.677 223.912 M205.600 225.188 C 205.600 225.779,205.126 226.122,203.700 226.560 C 202.655 226.881,202.121 227.157,202.513 227.172 C 203.936 227.228,206.000 226.073,206.000 225.220 C 206.000 224.769,205.910 224.400,205.800 224.400 C 205.690 224.400,205.600 224.755,205.600 225.188 M83.800 225.200 C 83.508 225.673,83.899 225.673,85.000 225.200 C 85.771 224.869,85.769 224.855,84.924 224.828 C 84.442 224.813,83.936 224.980,83.800 225.200 M165.000 226.257 L 163.800 227.285 165.100 226.556 C 165.815 226.155,166.400 225.686,166.400 225.514 C 166.400 225.075,166.346 225.103,165.000 226.257 M74.400 226.000 C 74.950 226.176,75.760 226.320,76.200 226.320 C 76.833 226.320,76.792 226.254,76.000 226.000 C 75.450 225.824,74.640 225.680,74.200 225.680 C 73.567 225.680,73.608 225.746,74.400 226.000 M78.800 226.200 C 76.415 226.891,77.575 226.906,80.600 226.224 C 82.094 225.886,82.547 225.681,81.800 225.680 C 81.140 225.679,79.790 225.913,78.800 226.200 M233.800 226.965 C 234.460 227.532,235.165 227.997,235.367 227.998 C 235.801 228.000,235.796 227.996,234.000 226.837 L 232.600 225.934 233.800 226.965 M273.078 227.034 C 272.460 227.565,272.100 227.994,272.278 227.987 C 272.721 227.968,274.551 226.417,274.357 226.224 C 274.270 226.138,273.695 226.503,273.078 227.034 M286.400 226.528 C 286.400 226.701,286.850 227.505,287.400 228.314 C 287.950 229.123,288.400 229.644,288.400 229.472 C 288.400 229.299,287.950 228.495,287.400 227.686 C 286.850 226.877,286.400 226.356,286.400 226.528 M308.598 227.602 C 307.558 228.751,308.020 228.880,309.114 227.746 C 309.617 227.226,309.870 226.800,309.676 226.800 C 309.482 226.800,308.997 227.161,308.598 227.602 M199.600 227.600 L 198.600 227.920 199.600 227.954 C 200.150 227.973,200.870 227.813,201.200 227.600 C 201.964 227.106,201.142 227.106,199.600 227.600 M56.000 228.252 C 56.000 228.464,56.765 229.349,57.700 230.219 L 59.400 231.800 57.800 230.006 C 56.920 229.020,56.155 228.135,56.100 228.039 C 56.045 227.944,56.000 228.040,56.000 228.252 M305.669 230.259 C 304.717 230.997,304.070 231.600,304.231 231.600 C 304.461 231.600,306.115 230.475,307.567 229.331 C 307.658 229.259,307.658 229.137,307.567 229.059 C 307.475 228.982,306.621 229.522,305.669 230.259 M90.224 230.213 C 89.796 230.536,89.627 230.800,89.847 230.800 C 90.067 230.800,90.596 230.536,91.024 230.213 C 91.451 229.890,91.620 229.625,91.400 229.625 C 91.180 229.625,90.651 229.890,90.224 230.213 M130.600 230.565 C 131.260 231.132,131.965 231.597,132.167 231.598 C 132.601 231.600,132.596 231.596,130.800 230.437 L 129.400 229.534 130.600 230.565 M157.600 230.600 C 156.610 231.130,155.942 231.572,156.116 231.582 C 156.541 231.606,159.600 230.034,159.600 229.792 C 159.600 229.527,159.617 229.520,157.600 230.600 M266.400 230.616 C 265.190 231.137,264.470 231.560,264.800 231.557 C 265.130 231.554,266.300 231.127,267.400 230.609 C 269.999 229.385,269.250 229.390,266.400 230.616 M186.600 231.042 C 185.318 231.489,185.238 231.565,186.200 231.427 C 188.313 231.124,190.353 230.482,189.200 230.483 C 188.650 230.483,187.480 230.735,186.600 231.042 M241.546 231.016 C 242.286 231.337,243.186 231.592,243.546 231.582 C 243.906 231.573,243.480 231.305,242.600 230.988 C 240.527 230.242,239.806 230.260,241.546 231.016 M245.004 232.006 C 245.138 232.223,245.807 232.400,246.490 232.400 C 248.001 232.400,247.849 232.200,246.080 231.863 C 245.255 231.706,244.852 231.760,245.004 232.006 M262.000 232.000 C 261.176 232.264,261.141 232.326,261.800 232.354 C 262.240 232.373,262.870 232.213,263.200 232.000 C 263.901 231.547,263.414 231.547,262.000 232.000 M291.800 232.000 C 291.936 232.220,292.442 232.387,292.924 232.372 C 293.769 232.345,293.771 232.331,293.000 232.000 C 291.899 231.527,291.508 231.527,291.800 232.000 M250.200 232.800 C 250.499 233.284,257.073 233.284,258.200 232.800 C 258.713 232.580,257.376 232.446,254.476 232.428 C 251.556 232.410,250.040 232.542,250.200 232.800 M295.400 232.800 C 296.498 233.272,299.270 233.272,300.000 232.800 C 300.415 232.532,299.676 232.419,297.600 232.434 C 295.557 232.449,294.855 232.566,295.400 232.800 M65.000 233.600 C 65.440 233.789,66.160 233.938,66.600 233.932 C 67.243 233.923,67.204 233.857,66.400 233.600 C 65.032 233.162,63.981 233.162,65.000 233.600 M76.800 233.600 L 75.400 233.895 76.800 233.919 C 77.570 233.933,78.560 233.789,79.000 233.600 L 79.800 233.256 79.000 233.281 C 78.560 233.294,77.570 233.438,76.800 233.600 M137.600 233.600 C 137.930 233.813,138.560 233.978,139.000 233.966 L 139.800 233.944 139.000 233.600 C 137.804 233.086,136.805 233.086,137.600 233.600 M148.600 233.600 L 147.800 233.944 148.600 233.966 C 149.040 233.978,149.670 233.813,150.000 233.600 C 150.795 233.086,149.796 233.086,148.600 233.600 M141.700 234.294 C 142.745 234.376,144.455 234.376,145.500 234.294 C 146.545 234.212,145.690 234.144,143.600 234.144 C 141.510 234.144,140.655 234.212,141.700 234.294 " stroke="none" fill="#75767d" fill-rule="evenodd"></path></g></svg>