<svg xmlns="http://www.w3.org/2000/svg" viewBox="0 0 61.84 8.4"><defs><style>.cls-1{fill:#41464b;stroke:#41464b;stroke-miterlimit:10;stroke-width:0.25px;}</style></defs><title>资源 2</title><g id="图层_2" data-name="图层 2"><g id="图层_1-2" data-name="图层 1"><path class="cls-1" d="M1.54,2.26h.15V2.9c0,.22,0,.43,0,.64l1.63,0v.43L1.7,4V6.44a4.18,4.18,0,0,0,.1,1.08c.07.25.26.36.57.35a2.67,2.67,0,0,0,.95-.34l.11.17a1.47,1.47,0,0,1-.59.41,2.55,2.55,0,0,1-.93.13,1.37,1.37,0,0,1-.49-.07.51.51,0,0,1-.3-.24A1.09,1.09,0,0,1,1,7.47a5,5,0,0,1,0-.74V4H.29C.18,4,.12,4,.12,3.94s.06-.12.16-.17A1.86,1.86,0,0,0,1,3.28a2.38,2.38,0,0,0,.26-.39A5,5,0,0,0,1.54,2.26Z"/><path class="cls-1" d="M3.83,3.49H5.37V6.58a1.31,1.31,0,0,0,.2.82.93.93,0,0,0,.75.24A2.22,2.22,0,0,0,7.82,7V4.13a.36.36,0,0,0-.05-.19s-.08-.08-.15-.11a1.59,1.59,0,0,0-.33-.08l-.58-.07V3.49H8.6V7a1.57,1.57,0,0,0,0,.34.28.28,0,0,0,.11.19A.74.74,0,0,0,9,7.61h.45v.1a.22.22,0,0,1,0,.09l-1.63.43V7.33a6.93,6.93,0,0,1-1,.69A1.82,1.82,0,0,1,6,8.25a1.25,1.25,0,0,1-1-.44,1.73,1.73,0,0,1-.39-1.18V4.12a.33.33,0,0,0-.15-.31,2.09,2.09,0,0,0-.63-.16Z"/><path class="cls-1" d="M12.2,8.18A2,2,0,0,1,11.33,8a1.7,1.7,0,0,1-.62-.47,2.07,2.07,0,0,1-.36-.71A3,3,0,0,1,10.23,6a2.85,2.85,0,0,1,.21-1.13A2.68,2.68,0,0,1,11,4a2.39,2.39,0,0,1,.79-.49,2.61,2.61,0,0,1,.9-.17,1.93,1.93,0,0,1,.42,0,2.22,2.22,0,0,1,.36.11l.34.14.66-.33.1,0c0,.63,0,1.25,0,1.88s0,1.24,0,1.87c0,.32.13.47.4.45a.43.43,0,0,0,.17,0l.12-.06.11-.1.12.06a2.42,2.42,0,0,1-.21.39,1.35,1.35,0,0,1-.28.25.69.69,0,0,1-.41.12.62.62,0,0,1-.55-.25,1.31,1.31,0,0,1-.17-.71V6.87a2.62,2.62,0,0,1-.22.48,1.74,1.74,0,0,1-.34.42,1.44,1.44,0,0,1-.49.3A1.88,1.88,0,0,1,12.2,8.18Zm1.71-2.64a2.55,2.55,0,0,0-.3-1.35,1.18,1.18,0,0,0-1.08-.49,1.63,1.63,0,0,0-.55.11,1.6,1.6,0,0,0-.53.34,1.78,1.78,0,0,0-.39.61,2.18,2.18,0,0,0-.16.89,2.76,2.76,0,0,0,.11.77,2.28,2.28,0,0,0,.3.65,1.5,1.5,0,0,0,.5.44,1.32,1.32,0,0,0,.66.16A1.16,1.16,0,0,0,13,7.52a1.49,1.49,0,0,0,.45-.42,2.31,2.31,0,0,0,.31-.63,2.58,2.58,0,0,0,.11-.8ZM11.85.86a.61.61,0,0,1,.41.2,3.53,3.53,0,0,1,.49.55l.37.5c.13.17.25.35.36.52l-.06.06-.53-.35c-.16-.12-.34-.24-.52-.35l-.29-.2-.27-.21a.84.84,0,0,1-.21-.21.37.37,0,0,1-.09-.22.28.28,0,0,1,.11-.21A.36.36,0,0,1,11.85.86Z"/><path class="cls-1" d="M20.66,2.26h.14c0,.22,0,.43,0,.64v.64l1.63,0v.43L20.81,4V6.44a4.09,4.09,0,0,0,.11,1.08c.06.25.25.36.56.35a2.61,2.61,0,0,0,.95-.34l.11.17a1.44,1.44,0,0,1-.58.41,2.55,2.55,0,0,1-.93.13,1.34,1.34,0,0,1-.49-.07.51.51,0,0,1-.3-.24,1.24,1.24,0,0,1-.15-.46,7.39,7.39,0,0,1,0-.74V4h-.65c-.11,0-.17,0-.17-.08s.05-.12.16-.17a1.86,1.86,0,0,0,.74-.49,2.42,2.42,0,0,0,.25-.39A4.94,4.94,0,0,0,20.66,2.26Z"/><path class="cls-1" d="M23,8.09V7.9l.6-.11a.48.48,0,0,0,.31-.18,1.05,1.05,0,0,0,.06-.43V4.88a.49.49,0,0,0-.1-.35,1,1,0,0,0-.45-.18l-.32-.07,0-.18a3.15,3.15,0,0,0,.78-.39A1.82,1.82,0,0,0,24.41,3h.22c0,.22,0,.45,0,.7s0,.53,0,.81a3.13,3.13,0,0,1,.66-.82,1.12,1.12,0,0,1,.73-.41.58.58,0,0,1,.46.17.54.54,0,0,1,.16.4.43.43,0,0,1-.13.35.47.47,0,0,1-.32.12,1.14,1.14,0,0,1-.42-.09.9.9,0,0,0-.38-.1.42.42,0,0,0-.27.13,1.22,1.22,0,0,0-.24.3,2.53,2.53,0,0,0-.18.37.79.79,0,0,0-.07.3v2a.6.6,0,0,0,.1.41.78.78,0,0,0,.44.15l.92.13v.19l-.72,0-.85,0h-.16l-.78,0Z"/><path class="cls-1" d="M29.44,8.18A1.91,1.91,0,0,1,28.58,8,1.62,1.62,0,0,1,28,7.53a1.93,1.93,0,0,1-.37-.71A3,3,0,0,1,27.47,6a2.68,2.68,0,0,1,.22-1.13A2.35,2.35,0,0,1,29,3.52a2.61,2.61,0,0,1,.9-.17,1.86,1.86,0,0,1,.42,0,2.22,2.22,0,0,1,.36.11l.34.14.66-.33.11,0V5.23c0,.62,0,1.24,0,1.87,0,.32.14.47.41.45a.38.38,0,0,0,.16,0l.13-.06.1-.1.12.06a1.47,1.47,0,0,1-.21.39,1.14,1.14,0,0,1-.28.25.69.69,0,0,1-.41.12.63.63,0,0,1-.55-.25,1.31,1.31,0,0,1-.17-.71V6.87a2.09,2.09,0,0,1-.22.48,1.53,1.53,0,0,1-.34.42,1.44,1.44,0,0,1-.49.3A1.8,1.8,0,0,1,29.44,8.18Zm1.72-2.64a2.54,2.54,0,0,0-.31-1.35,1.15,1.15,0,0,0-1.07-.49,1.68,1.68,0,0,0-.56.11,1.56,1.56,0,0,0-.52.34,1.8,1.8,0,0,0-.4.61,2.36,2.36,0,0,0-.16.89,2.76,2.76,0,0,0,.11.77,2.3,2.3,0,0,0,.31.65,1.38,1.38,0,0,0,.49.44,1.35,1.35,0,0,0,.67.16,1.12,1.12,0,0,0,.56-.15,1.41,1.41,0,0,0,.46-.42,2.3,2.3,0,0,0,.3-.63,2.58,2.58,0,0,0,.12-.8Z"/><path class="cls-1" d="M39.15,8.08a20.85,20.85,0,0,0-2.5,0V7.89l.66-.1c.18,0,.27-.18.27-.46v-2a2.22,2.22,0,0,0-.23-1.08.93.93,0,0,0-.89-.41,2.13,2.13,0,0,0-1.5.73V7.46c0,.12.1.21.29.26l.71.17v.19l-.4,0-.5,0h-.4c-.57,0-1,0-1.3,0V7.89L34,7.77c.16,0,.24-.15.24-.36V5a.66.66,0,0,0-.15-.5,1.07,1.07,0,0,0-.53-.19V4.12A1.89,1.89,0,0,0,34.77,3H35V4.12a3.9,3.9,0,0,1,1-.63,2.46,2.46,0,0,1,1-.23c.92,0,1.38.55,1.38,1.64V7.29a.82.82,0,0,0,.06.35.3.3,0,0,0,.24.15l.53.1Z"/><path class="cls-1" d="M42.81,4.59a1,1,0,0,0-.18-.38,2,2,0,0,0-.3-.35A1.31,1.31,0,0,0,42,3.62a.74.74,0,0,0-.32-.09c-.59,0-.88.27-.88.81a.66.66,0,0,0,.29.54,3.1,3.1,0,0,0,.88.44q1.35.52,1.35,1.47a1.32,1.32,0,0,1-.13.6,1.47,1.47,0,0,1-.36.46,1.8,1.8,0,0,1-.53.29,2.32,2.32,0,0,1-.65.1,3,3,0,0,1-1.41-.31l-.12-1.36h.2a2.35,2.35,0,0,0,.24.58,2.69,2.69,0,0,0,.35.45,1.5,1.5,0,0,0,.41.28,1.06,1.06,0,0,0,.44.11,1,1,0,0,0,.7-.24.84.84,0,0,0,.26-.63c0-.46-.37-.83-1.13-1.1a3.48,3.48,0,0,1-1.13-.63,1.15,1.15,0,0,1-.34-.87,1.06,1.06,0,0,1,.47-.92,1.9,1.9,0,0,1,1.16-.34A2.37,2.37,0,0,1,43,3.54l.08,1Z"/><path class="cls-1" d="M46.79,8.08l-.63,0-.7,0-.7,0-.63,0V7.89l.74-.14a.5.5,0,0,0,.22-.1.35.35,0,0,0,.06-.24V1.31A.45.45,0,0,0,45,.94a1.78,1.78,0,0,0-.63-.26V.52A6.33,6.33,0,0,0,45.6.12h.28V7.39a.57.57,0,0,0,0,.29.38.38,0,0,0,.23.1l.63.11Z"/><path class="cls-1" d="M49.54,8.18A1.91,1.91,0,0,1,48.68,8a1.62,1.62,0,0,1-.62-.47,1.93,1.93,0,0,1-.37-.71A3,3,0,0,1,47.57,6a2.68,2.68,0,0,1,.22-1.13,2.35,2.35,0,0,1,1.35-1.3,2.61,2.61,0,0,1,.9-.17,1.86,1.86,0,0,1,.42,0,2.74,2.74,0,0,1,.37.11l.33.14.66-.33.11,0V5.23c0,.62,0,1.24,0,1.87,0,.32.14.47.41.45a.38.38,0,0,0,.16,0l.13-.06.11-.1.12.06a1.87,1.87,0,0,1-.22.39,1.14,1.14,0,0,1-.28.25.69.69,0,0,1-.41.12.63.63,0,0,1-.55-.25,1.31,1.31,0,0,1-.16-.71V6.87a2.65,2.65,0,0,1-.23.48,1.53,1.53,0,0,1-.34.42,1.44,1.44,0,0,1-.49.3A1.8,1.8,0,0,1,49.54,8.18Zm1.72-2.64A2.54,2.54,0,0,0,51,4.19a1.15,1.15,0,0,0-1.07-.49,1.58,1.58,0,0,0-.55.11,1.5,1.5,0,0,0-.53.34,1.8,1.8,0,0,0-.4.61,2.37,2.37,0,0,0-.15.89,2.76,2.76,0,0,0,.1.77,2.3,2.3,0,0,0,.31.65,1.47,1.47,0,0,0,.49.44,1.35,1.35,0,0,0,.67.16,1.09,1.09,0,0,0,.56-.15,1.41,1.41,0,0,0,.46-.42,2.3,2.3,0,0,0,.3-.63,2.58,2.58,0,0,0,.12-.8Z"/><path class="cls-1" d="M55,2.26h.14c0,.22,0,.43,0,.64s0,.43,0,.64l1.63,0v.43L55.16,4V6.44a4.18,4.18,0,0,0,.1,1.08c.07.25.26.36.57.35a2.67,2.67,0,0,0,1-.34l.1.17a1.37,1.37,0,0,1-.58.41,2.55,2.55,0,0,1-.93.13,1.37,1.37,0,0,1-.49-.07.51.51,0,0,1-.3-.24,1.09,1.09,0,0,1-.14-.46,5,5,0,0,1,0-.74V4h-.65c-.11,0-.17,0-.17-.08s.06-.12.16-.17a1.86,1.86,0,0,0,.74-.49,2.38,2.38,0,0,0,.26-.39C54.82,2.72,54.91,2.51,55,2.26Z"/><path class="cls-1" d="M61.62,5H58.28a2.59,2.59,0,0,0,0,.48,2.59,2.59,0,0,0,.13.86,2.09,2.09,0,0,0,.38.67,1.65,1.65,0,0,0,.6.43,2,2,0,0,0,.79.15,1.73,1.73,0,0,0,.76-.16,3.06,3.06,0,0,0,.76-.55l.05.28a2.68,2.68,0,0,1-2.17,1,1.73,1.73,0,0,1-.81-.2,2,2,0,0,1-.66-.52,2.45,2.45,0,0,1-.43-.78,3,3,0,0,1-.16-1,2.68,2.68,0,0,1,.18-1,2.58,2.58,0,0,1,.48-.8,2.45,2.45,0,0,1,.74-.53,2.13,2.13,0,0,1,.92-.19,2,2,0,0,1,.71.12,2.12,2.12,0,0,1,.57.36,1.73,1.73,0,0,1,.38.57A2.11,2.11,0,0,1,61.62,5Zm-3.28-.25h1.82a2.52,2.52,0,0,0,.57,0c.12,0,.15-.17.09-.38a1.28,1.28,0,0,0-.33-.56.91.91,0,0,0-.7-.26,1.42,1.42,0,0,0-1,.34A1.62,1.62,0,0,0,58.34,4.78Z"/></g></g></svg>